<svg xmlns="http://www.w3.org/2000/svg" viewBox="185.5 375.5 43 43"><path d="M224.301 379.195h-4.003v-1.176c0-1.389-1.13-2.52-2.52-2.52s-2.52 1.13-2.52 2.52v1.176h-14.109v-1.176c0-1.389-1.13-2.52-2.52-2.52s-2.52 1.13-2.52 2.52v1.207a.824.824 0 0 0-.224-.031h-3.346a4.204 4.204 0 0 0-4.199 4.199V397.7a.84.84 0 1 0 1.68 0v-9.854h30.277a.84.84 0 1 0 0-1.68H190.02v-2.771c0-1.389 1.13-2.52 2.52-2.52h3.346a.824.824 0 0 0 .224-.031v1.081c0 1.389 1.13 2.52 2.52 2.52s2.52-1.13 2.52-2.52v-1.05h14.109v1.05c0 1.389 1.13 2.52 2.52 2.52s2.52-1.13 2.52-2.52v-1.05h4.003c1.389 0 2.52 1.13 2.52 2.52v31.914c0 .834-.678 1.512-1.512 1.512s-1.512-.678-1.512-1.512v-2.173a.84.84 0 0 0-.84-.84h-9.769a.84.84 0 1 0 0 1.68h8.929v1.333c0 .547.138 1.062.382 1.512h-33.806a1.513 1.513 0 0 1-1.512-1.512v-1.333h18.798a.84.84 0 1 0 0-1.68h-8.391a6.87 6.87 0 0 0 2.399-5.218 6.895 6.895 0 0 0-6.887-6.887 6.895 6.895 0 0 0-6.887 6.887c0 2.084.932 3.954 2.399 5.218h-2.272a.84.84 0 0 0-.84.84v2.173a3.195 3.195 0 0 0 3.191 3.191h36.617a3.196 3.196 0 0 0 3.192-3.192v-31.914a4.206 4.206 0 0 0-4.2-4.199zm-24.832 2.73a.841.841 0 0 1-1.68 0v-3.905a.841.841 0 0 1 1.68 0v3.905zm19.149 0a.841.841 0 0 1-1.68 0v-3.905a.841.841 0 0 1 1.68 0v3.905zm-30.726 25.153a5.213 5.213 0 0 1 5.207-5.207c2.871 0 5.207 2.336 5.207 5.207s-2.336 5.207-5.207 5.207a5.213 5.213 0 0 1-5.207-5.207z"/><path d="M224.237 387.846c.221 0 .438-.09.594-.246.156-.156.246-.373.246-.594s-.09-.438-.246-.594a.847.847 0 0 0-.594-.246.847.847 0 0 0-.594.246c-.156.156-.246.373-.246.594s.09.438.246.594a.847.847 0 0 0 .594.246zm-14.843 24.695a.849.849 0 0 0-.246.594c0 .222.09.438.246.595a.846.846 0 0 0 1.188 0c.156-.157.246-.374.246-.595s-.09-.437-.246-.594a.846.846 0 0 0-1.188 0zm-4.893-5.127c1.76 0 3.191-1.432 3.191-3.191s-1.432-3.191-3.191-3.191c-1.76 0-3.191 1.432-3.191 3.191s1.431 3.191 3.191 3.191zm0-4.703c.834 0 1.512.678 1.512 1.512s-.678 1.512-1.512 1.512-1.512-.678-1.512-1.512.678-1.512 1.512-1.512zm7.839 4.703c1.76 0 3.191-1.432 3.191-3.191s-1.432-3.191-3.191-3.191c-1.76 0-3.191 1.432-3.191 3.191s1.431 3.191 3.191 3.191zm0-4.703c.834 0 1.512.678 1.512 1.512s-.678 1.512-1.512 1.512-1.512-.678-1.512-1.512.678-1.512 1.512-1.512zm7.838 4.703c1.76 0 3.191-1.432 3.191-3.191s-1.432-3.191-3.191-3.191c-1.76 0-3.191 1.432-3.191 3.191s1.431 3.191 3.191 3.191zm0-4.703c.834 0 1.512.678 1.512 1.512s-.678 1.512-1.512 1.512-1.512-.678-1.512-1.512.679-1.512 1.512-1.512zm-20.324-7.223a3.195 3.195 0 0 0-3.191-3.191c-1.76 0-3.191 1.432-3.191 3.191s1.432 3.191 3.191 3.191a3.194 3.194 0 0 0 3.191-3.191zm-4.703 0c0-.834.678-1.512 1.512-1.512s1.512.678 1.512 1.512-.679 1.512-1.512 1.512a1.513 1.513 0 0 1-1.512-1.512zm17.189 3.192c1.76 0 3.191-1.432 3.191-3.191s-1.432-3.191-3.191-3.191c-1.76 0-3.191 1.432-3.191 3.191s1.431 3.191 3.191 3.191zm0-4.703c.834 0 1.512.678 1.512 1.512a1.513 1.513 0 0 1-3.024-.001c0-.834.678-1.511 1.512-1.511zm7.838 4.703c1.76 0 3.191-1.432 3.191-3.191s-1.432-3.191-3.191-3.191c-1.76 0-3.191 1.432-3.191 3.191s1.431 3.191 3.191 3.191zm0-4.703a1.512 1.512 0 1 1-.001 3.021 1.512 1.512 0 0 1 .001-3.021zm-15.677 4.703c1.76 0 3.191-1.432 3.191-3.191s-1.432-3.191-3.191-3.191c-1.76 0-3.191 1.432-3.191 3.191s1.431 3.191 3.191 3.191zm0-4.703a1.512 1.512 0 1 1-.001 3.021 1.512 1.512 0 0 1 .001-3.021zm-12.927 15.571a.843.843 0 0 0 1.188 0l3.329-3.329a.84.84 0 0 0-1.188-1.188l-2.735 2.735-.935-.935a.84.84 0 0 0-1.188 1.188l1.529 1.529z"/></svg>