<svg xmlns="http://www.w3.org/2000/svg" viewBox="0 0 44 40"><path d="M22-4C8.766-4-2 6.766-2 20S8.766 44 22 44s24-10.766 24-24S35.234-4 22-4zm0 46.398C9.648 42.398-.398 32.352-.398 20S9.648-2.398 22-2.398 44.398 7.648 44.398 20 34.352 42.398 22 42.398zm0 0"/><path d="M22.801 16.816V8.703c0-.441-.36-.801-.801-.801s-.801.36-.801.801v8.113a3.198 3.198 0 0 0-2.285 2.286h-5.715a.802.802 0 0 0-.801.8c0 .442.36.801.801.801h5.715A3.194 3.194 0 0 0 22 23.102a3.2 3.2 0 0 0 3.199-3.2 3.197 3.197 0 0 0-2.398-3.086zM22 21.504a1.604 1.604 0 0 1-1.602-1.602A1.6 1.6 0 0 1 22 18.305a1.6 1.6 0 0 1 1.602 1.597c0 .883-.719 1.602-1.602 1.602zm0-17.602a.8.8 0 0 0 .801-.8v-.797c0-.446-.36-.801-.801-.801s-.801.355-.801.801v.797c0 .445.36.8.801.8zm0 32a.803.803 0 0 0-.801.801v.801c0 .441.36.801.801.801s.801-.36.801-.801v-.801a.803.803 0 0 0-.801-.801zm17.602-16.8h-.801a.801.801 0 0 0 0 1.601h.801a.798.798 0 0 0 .796-.801c0-.441-.355-.8-.796-.8zm-34.403 0h-.801a.798.798 0 0 0-.796.8c0 .442.355.801.796.801h.801a.801.801 0 0 0 0-1.601zm28.68-12.211l-.567.566a.803.803 0 0 0 .567 1.367c.207 0 .41-.078.566-.234l.567-.567a.802.802 0 0 0-1.133-1.132zM9.555 31.219l-.567.562a.803.803 0 0 0 .567 1.367c.207 0 .41-.078.566-.234l.567-.566a.798.798 0 0 0 0-1.129.797.797 0 0 0-1.133 0zm24.89 0a.794.794 0 0 0-1.133 0 .798.798 0 0 0 0 1.129l.567.566a.805.805 0 0 0 1.133 0 .803.803 0 0 0 0-1.133l-.567-.562zM10.121 6.891a.8.8 0 0 0-1.133 1.132l.567.567a.805.805 0 0 0 1.133 0 .803.803 0 0 0 0-1.133l-.567-.566zm0 0"/></svg>