<svg xmlns="http://www.w3.org/2000/svg" viewBox="0 0 18 20"><path d="M31.965-13.765a.796.796 0 0 0-1.129 0L27.867-10.8H9.242l-23.414 23.609A2.801 2.801 0 0 0-15 14.805c0 .754.293 1.465.828 1.996L2.199 33.172c.551.551 1.27.828 1.992.828.727 0 1.454-.277 2.008-.836L29 9.75V-9.668l2.965-2.964a.803.803 0 0 0 0-1.133zM27.398 9.098L5.059 32.043a1.221 1.221 0 0 1-1.727 0l-16.375-16.375a1.221 1.221 0 0 1 .004-1.73L9.91-9.199h16.36l-3.868 3.867A3.955 3.955 0 0 0 20.199-6c-2.203 0-4 1.793-4 4s1.797 4 4 4c2.207 0 4-1.793 4-4 0-.812-.246-1.57-.664-2.203l3.863-3.867V9.098zM22.602-2A2.403 2.403 0 0 1 20.199.399a2.399 2.399 0 0 1 0-4.797c.371 0 .715.09 1.028.238l-1.594 1.594a.8.8 0 1 0 1.133 1.133l1.593-1.594c.149.313.243.656.243 1.027zm0 0"/><path d="M-4.517 17.692l3.055-3.333 1.014.93-1.926 2.1 1.249 1.146 1.8-1.962 1.005.922-1.8 1.962 2.198 2.015-1.13 1.232-5.465-5.012zm3.982-4.198c.299-.457.785-1.086 1.395-1.75.744-.811 1.387-1.268 2.051-1.373.564-.096 1.117.083 1.62.543.689.633.715 1.566.453 2.193l.024.021c.504-.24 1.055-.123 1.683.199.781.402 1.644.895 1.951.982l-1.16 1.266c-.235-.068-.802-.332-1.615-.795-.83-.478-1.224-.406-1.7.098l-.335.365 2.149 1.969-1.123 1.225-5.393-4.943zm3.474.932l.446-.487c.564-.616.592-1.264.113-1.702-.495-.453-1.066-.351-1.588.218-.274.3-.414.483-.472.596l1.501 1.375zm6.997-6.167L8.092 10.27l1.297 1.19 2.061-2.247 1.014.929-3.189 3.479-5.468-5.01 3.085-3.365 1.014.929-1.955 2.133 1.136 1.041L8.93 7.337l1.006.922zm3.968-4.329L12.06 5.941l1.297 1.19 2.061-2.247 1.014.929-3.189 3.479-5.467-5.011L10.861.916l1.014.929L9.92 3.979l1.135 1.041 1.844-2.011 1.005.921z" fill="#010101"/></svg>