<svg xmlns="http://www.w3.org/2000/svg" viewBox="185.92 374.495 42 45"><path d="M186.619 416.918h11.083v1.892c0 .379.313.686.699.686h17.039a.693.693 0 0 0 .699-.686v-1.892h11.083a.693.693 0 0 0 .699-.686v-3.594c-.008-3.515-2.904-6.366-6.486-6.384h-5.402a6.546 6.546 0 0 0-5.281 2.672 6.643 6.643 0 0 0-1.118-.095h-5.407a6.54 6.54 0 0 0-1.118.095 6.546 6.546 0 0 0-5.281-2.672h-5.402c-3.589.008-6.497 2.861-6.505 6.384v3.599a.691.691 0 0 0 .698.681zm26.912-8.649a5.137 5.137 0 0 1 2.496-.643h5.407c2.818.008 5.1 2.247 5.108 5.012v2.913h-10.408v-1.986l-.034-.118v-.231l-.067-.184a6.49 6.49 0 0 0-3.547-3.646 5.106 5.106 0 0 1 1.045-1.117zm-9.305 1.939h5.407c2.566.009 4.729 1.878 5.064 4.374 0 .104 0 .208.029.312v3.235h-15.608v-3.986l.029-.113.048-.17.034-.113c.692-2.059 2.648-3.453 4.857-3.461l.14-.078zm-16.909 2.43c.008-2.765 2.29-5.005 5.108-5.012h5.402a5.137 5.137 0 0 1 3.85 1.726c-2.174.926-3.668 2.934-3.903 5.249v.946h-10.457v-2.909z"/><ellipse cx="206.959" cy="383.698" rx=".79" ry=".776"/><path d="M195.124 395.44c-2.717-.002-4.922 2.157-4.924 4.824-.002 2.666 2.198 4.83 4.916 4.832 2.717.002 4.922-2.157 4.924-4.824a4.783 4.783 0 0 0-1.436-3.414 4.955 4.955 0 0 0-3.48-1.418zm2.491 7.268a3.57 3.57 0 0 1-4.982.001 3.412 3.412 0 0 1-.001-4.889 3.57 3.57 0 0 1 4.982-.001 3.415 3.415 0 0 1 .001 4.889z"/><ellipse cx="212.066" cy="383.698" rx=".79" ry=".776"/><path d="M218.654 383.835c0-2.606-1.335-4.96-3.494-6.653a13.376 13.376 0 0 0-8.23-2.686 13.376 13.376 0 0 0-8.23 2.686c-2.159 1.693-3.494 4.048-3.494 6.653a7.755 7.755 0 0 0 .997 3.783 9.608 9.608 0 0 0 2.453 2.837l-.554 3.617a.683.683 0 0 0 .582.776.71.71 0 0 0 .454-.085l3.768-2.156c.597.174 1.206.309 1.821.402.73.11 1.468.166 2.207.165a13.376 13.376 0 0 0 8.23-2.686c2.155-1.697 3.49-4.047 3.49-6.653zm-4.361 5.595a11.96 11.96 0 0 1-7.363 2.364 13.25 13.25 0 0 1-3.917-.587.705.705 0 0 0-.559.061l-2.751 1.594.4-2.601a.68.68 0 0 0-.284-.657 8.356 8.356 0 0 1-2.409-2.648 6.393 6.393 0 0 1-.819-3.121c0-2.175 1.132-4.152 2.964-5.589a11.96 11.96 0 0 1 7.363-2.364 11.96 11.96 0 0 1 7.363 2.364c1.831 1.419 2.964 3.414 2.964 5.589-.003 2.176-1.121 4.152-2.952 5.595zm4.438 15.661c2.717.002 4.922-2.157 4.924-4.824.002-2.666-2.198-4.83-4.916-4.832-2.717-.002-4.922 2.157-4.924 4.824a4.783 4.783 0 0 0 1.436 3.414 4.95 4.95 0 0 0 3.48 1.418zm-2.487-7.273a3.57 3.57 0 0 1 4.982-.001 3.412 3.412 0 0 1 .001 4.889 3.57 3.57 0 0 1-4.982.001 3.422 3.422 0 0 1-1.032-2.444 3.419 3.419 0 0 1 1.031-2.445z"/><ellipse cx="201.851" cy="383.698" rx=".79" ry=".776"/><path d="M203.451 399.431a4.76 4.76 0 0 0 .012 6.821c1.923 1.88 5.035 1.875 6.951-.012a4.76 4.76 0 0 0-.012-6.821 4.964 4.964 0 0 0-3.472-1.407 4.946 4.946 0 0 0-3.479 1.419zm7.001 3.414c-.001 1.909-1.578 3.456-3.523 3.456s-3.522-1.549-3.521-3.458c.001-1.909 1.578-3.456 3.523-3.456.934 0 1.83.365 2.49 1.013a3.419 3.419 0 0 1 1.031 2.445z"/></svg>