<svg xmlns="http://www.w3.org/2000/svg" viewBox="186.5 376.501 41 41"><path d="M225.783 386.064a6.446 6.446 0 0 0 1.717-4.385.801.801 0 0 0-.998-.776l-3.81.969a7.634 7.634 0 0 1-1.873.234h-5.591a3.622 3.622 0 0 0-3.602 3.094 2.03 2.03 0 0 1-2.019 1.734h-.205v-1.673a4.713 4.713 0 0 0 2.309-4.05c0-2.598-2.113-4.711-4.711-4.711s-4.711 2.113-4.711 4.711c0 1.721.928 3.228 2.309 4.05v1.673h-.205a2.03 2.03 0 0 1-2.019-1.734 3.624 3.624 0 0 0-3.602-3.094h-5.591a7.634 7.634 0 0 1-1.873-.234l-3.81-.969a.8.8 0 0 0-.998.776c0 1.69.652 3.231 1.717 4.385a6.196 6.196 0 0 0 2.367 4.797l.753 1.007a9.187 9.187 0 0 0 7.322 3.666 9.085 9.085 0 0 0 5.939-2.19v2.856h-.718a5.184 5.184 0 0 0-5.178 5.178c0 .873.221 1.735.64 2.496a.801.801 0 1 0 1.403-.773 3.582 3.582 0 0 1 3.136-5.3h.718v7.154h-1.882a3.834 3.834 0 0 0-3.83 3.83 3.834 3.834 0 0 0 3.83 3.83h2.226a20.735 20.735 0 0 0 1.332 4.399.8.8 0 0 0 .736.486h.001a.802.802 0 0 0 .736-.488l.016-.037a20.713 20.713 0 0 0 1.303-4.359h.91c.905 0 1.642.736 1.642 1.642 0 .905-.736 1.642-1.642 1.642h-.054a.801.801 0 0 0 0 1.602h.054c1.788 0 3.243-1.455 3.243-3.243s-1.455-3.243-3.243-3.243h-.682c.072-.703.108-1.411.108-2.125v-2.333h.534a5.184 5.184 0 0 0 5.178-5.178 5.184 5.184 0 0 0-5.178-5.178h-.534v-2.856a9.083 9.083 0 0 0 5.939 2.19 9.19 9.19 0 0 0 7.322-3.666l.753-1.007a6.203 6.203 0 0 0 2.366-4.799zM207 378.103a3.113 3.113 0 0 1 3.11 3.11c0 1.715-1.395 3.11-3.11 3.11s-3.11-1.395-3.11-3.11a3.113 3.113 0 0 1 3.11-3.11zm-3.036 13.65a7.496 7.496 0 0 1-5.305 2.18 7.577 7.577 0 0 1-4.847-1.767c.201.02.405.03.611.03h1.341a.801.801 0 0 0 0-1.602h-1.341a4.613 4.613 0 0 1-4.365-3.139 6.428 6.428 0 0 0 2.914.696h1.656a.8.8 0 1 0 0-1.602h-1.656a4.88 4.88 0 0 1-4.754-3.812l2.696.685a9.222 9.222 0 0 0 2.267.284h5.591a2.03 2.03 0 0 1 2.019 1.734 3.624 3.624 0 0 0 3.602 3.094h.205v2.589l-.634.63zm2.235-5.899a4.697 4.697 0 0 0 1.602 0v19.102h-1.602v-19.102zm-3.483 25.161c-1.229 0-2.229-1-2.229-2.229s1-2.229 2.229-2.229h1.882v2.285c0 .73.038 1.454.113 2.172h-1.995v.001zm5.085-2.125a19.03 19.03 0 0 1-.794 5.462 19.047 19.047 0 0 1-.808-5.51v-2.285h1.602v2.333zm2.135-11.088a3.582 3.582 0 0 1 3.577 3.577 3.582 3.582 0 0 1-3.577 3.577h-.534v-7.154h.534zm5.405-3.869a7.5 7.5 0 0 1-5.305-2.18l-.634-.627v-2.589h.205a3.622 3.622 0 0 0 3.602-3.094 2.03 2.03 0 0 1 2.019-1.734h5.591c.764 0 1.527-.095 2.267-.284l2.696-.685a4.88 4.88 0 0 1-4.754 3.812h-1.656a.801.801 0 0 0 0 1.602h1.656a6.428 6.428 0 0 0 2.914-.696 4.613 4.613 0 0 1-4.365 3.139h-1.341a.801.801 0 0 0 0 1.602h1.341c.206 0 .41-.011.611-.03a7.591 7.591 0 0 1-4.847 1.764zm-11.544 21.966a.806.806 0 0 0-.801.801c0 .21.086.417.235.566.149.149.356.235.566.235s.417-.086.566-.235a.806.806 0 0 0 .235-.566.806.806 0 0 0-.801-.801z"/></svg>