<svg version="1.1" id="Layer_1" xmlns="http://www.w3.org/2000/svg" xmlns:xlink="http://www.w3.org/1999/xlink" x="0" y="0" viewBox="0 0 44 40" xml:space="preserve"><style>.st0{clip-path:url(#SVGID_2_)}</style><defs><path id="SVGID_1_" d="M3-3h38v47H3z"/></defs><clipPath id="SVGID_2_"><use xlink:href="#SVGID_1_" overflow="visible"/></clipPath><path class="st0" d="M15.46 7.7c-4.16 0-7.55 3.39-7.55 7.55s3.39 7.55 7.55 7.55 7.55-3.39 7.55-7.55-3.38-7.55-7.55-7.55zm0 13.5c-3.28 0-5.95-2.67-5.95-5.95 0-3.28 2.67-5.95 5.95-5.95 3.28 0 5.95 2.67 5.95 5.95 0 3.28-2.66 5.95-5.95 5.95zm0 0"/><path class="st0" d="M40.44 8.46C39.54 1.62 35.29-2 28.13-2 21.21-2 18.18.98 16.86 3.65c-.45-.03-.92-.05-1.4-.05-7.15 0-11.4 3.62-12.3 10.46-.3 2.27-.18 4.72.36 7.27 2.67 12.66 9.12 20.25 11.03 22.27.24.25.57.39.92.39.34 0 .68-.14.92-.39 1.22-1.29 4.27-4.84 7.02-10.52 1.73 2.62 3.21 4.28 3.82 4.92.23.25.57.4.91.4.35 0 .68-.14.92-.4 1.91-2.02 8.36-9.62 11.03-22.27.53-2.55.65-5 .35-7.27zM15.46 42.24C13.72 40.32 7.6 32.91 5.09 21c-.5-2.38-.62-4.64-.34-6.73.78-6.02 4.39-9.07 10.71-9.07 2.64 0 4.81.54 6.5 1.61 3.05 2.01 3.96 5.65 4.22 7.67.04.26.06.53.08.8 0 .02 0 .05.01.07.02.26.03.53.04.81.03 1.55-.12 3.17-.47 4.85-2.51 11.9-8.63 19.31-10.38 21.23zm7.85-36.48c1.06-1.37 2.85-2.16 4.94-2.16 3.28 0 5.95 2.67 5.95 5.95 0 3.28-2.67 5.95-5.95 5.95-.12 0-.24 0-.36-.01-.03-.48-.06-.96-.12-1.43-.5-3.76-2.01-6.55-4.46-8.3zm15.2 9.64C36 27.31 29.88 34.72 28.13 36.64c-.76-.83-2.25-2.61-3.94-5.28 1.26-2.88 2.41-6.22 3.21-10.03.31-1.46.46-2.87.5-4.25.12 0 .24.02.35.02 4.16 0 7.55-3.39 7.55-7.55S32.41 2 28.25 2c-2.67 0-4.96 1.09-6.32 2.95-1-.5-2.11-.86-3.35-1.08C20.23 1.05 23.42-.4 28.13-.4c6.32 0 9.93 3.05 10.72 9.07.28 2.09.17 4.36-.34 6.73zm0 0"/></svg>