<svg xmlns="http://www.w3.org/2000/svg" viewBox="0 0 18 20"><path d="M28.923 11.53h-1.527a18.127 18.127 0 0 0-1.687-6.603.647.647 0 0 0-.855-.31.634.634 0 0 0-.313.847 16.866 16.866 0 0 1 1.565 6.066H-3.377a.64.64 0 0 0-.644.637.64.64 0 0 0 .644.637h32.3c.326 0 .59.263.59.585v.778a.588.588 0 0 1-.59.584h-40.245a.587.587 0 0 1-.59-.584v-.778c0-.322.264-.585.59-.585h4.945a.64.64 0 0 0 .644-.637.64.64 0 0 0-.644-.637h-2.127C-8.22 7.298-6.387 3.36-3.296.382a17.322 17.322 0 0 1 10.94-4.827h.007c.175-.011.349-.02.52-.026l.102-.004.182-.005c.115-.001.23-.003.346-.003.154 0 .308.003.461.007l.136.004c.118.004.236.01.354.016l.188.01A17.397 17.397 0 0 1 23.11 2.98c.201.29.602.364.895.165a.633.633 0 0 0 .166-.886 18.67 18.67 0 0 0-12.732-7.828 3.08 3.08 0 0 0 .501-1.682c0-.346-.156-.984-1.201-1.365-.522-.19-1.211-.295-1.938-.295-.728 0-1.417.105-1.939.295-1.045.38-1.201 1.018-1.201 1.364 0 .606.18 1.186.499 1.678A18.599 18.599 0 0 0-4.195-.531c-3.34 3.219-5.314 7.482-5.6 12.061h-1.527a1.87 1.87 0 0 0-1.877 1.859v.778a1.87 1.87 0 0 0 1.877 1.859h6.934a7.974 7.974 0 0 0-.988.79l-.013.012a.52.52 0 0 0-.056.059L-8.5 20.558a1.773 1.773 0 0 0-1.285-.243 1.76 1.76 0 0 0-1.137.741l-1.202 1.754a1.751 1.751 0 0 0 .472 2.443l8.224 5.53a1.78 1.78 0 0 0 1.333.273 1.764 1.764 0 0 0 1.137-.741l1.202-1.754a1.75 1.75 0 0 0-.473-2.443l-.047-.032a4.169 4.169 0 0 1 2.166-1.294c1.749-.401 3.808-.143 5.204.086 1.727.283 3.541.187 5.246-.28l2.37-.648a12.262 12.262 0 0 0 4.319-2.162l.028-.024 4.069-3.567c.694-.525.845-1.435.605-2.172h5.192a1.871 1.871 0 0 0 1.878-1.859v-.778a1.87 1.87 0 0 0-1.878-1.858zM8.801-7.638c1.084 0 1.733.265 1.852.413a1.834 1.834 0 0 1-.82 1.497 24.754 24.754 0 0 0-.502-.021c-.18-.005-.357-.008-.53-.008-.123 0-.249.002-.376.004l-.183.005-.221.007-.253.012a1.83 1.83 0 0 1-.82-1.496c.12-.147.769-.413 1.853-.413zm4.616 23.97a2.036 2.036 0 0 0-.17-.307h6.174l-2.67 1.749-3.805 1.089-.129.003a2.154 2.154 0 0 0 .6-2.534zm-6.98-.307l-.929.192-.718-.192h1.647zM-.822 27.846L-2.023 29.6a.49.49 0 0 1-.682.129l-8.224-5.53a.482.482 0 0 1-.13-.674l1.202-1.754a.486.486 0 0 1 .406-.213c.097 0 .193.029.275.084l.444.298 7.779 5.231a.483.483 0 0 1 .131.675zm23.159-10.655c-.016.011-.03.023-.045.035l-4.073 3.572a10.983 10.983 0 0 1-3.851 1.924l-2.37.648a11.114 11.114 0 0 1-4.693.251c-1.505-.246-3.732-.523-5.705-.07a5.475 5.475 0 0 0-2.945 1.816l-6.084-4.091 2.953-3.549c1.117-1.044 2.533-1.663 3.889-1.701h.026c.421-.007.866.115 1.337.246l.284.077 4.262 1.138c.098.026.2.029.299.008l5.582-1.152a.966.966 0 0 1 .729.14.856.856 0 0 1 .307.363.888.888 0 0 1-.417 1.152l-1.905.998a.633.633 0 0 0-.321.723.645.645 0 0 0 .637.477l2.825-.06a.692.692 0 0 0 .164-.025l3.981-1.14a.645.645 0 0 0 .177-.081l4.015-2.631c.337-.206.786-.376 1.024-.027.186.271.191.759-.082.959zm0 0"/></svg>